<svg xmlns="http://www.w3.org/2000/svg" fill="none" viewBox="0 0 493 275">
  <title>Steez</title>
  <path fill="currentColor"
    d="M89.143 2.743 95.45 16.73l-1.645 6.309c-.549 5.486-1.646 7.406-1.646 7.406-1.371 1.92-.274 4.388-2.743 6.857 0 0-2.468 2.468-1.646 7.406.549 3.017-.548 5.485-.548 5.485-1.372 2.469 1.371 7.68 0 10.149 0 0-1.097 2.468-1.097 13.44l-5.212 35.383-2.743-29.623-4.388-11.246c-.274-9.874-1.097-11.794-1.097-11.794-.823-1.92-1.372-8.777-2.195-11.246-.274-.823-.548-1.92-.822-3.017-.549-.549-.823-1.371-.549-1.92v-.549s0-1.097-.274-1.92l-.275-6.857-.548-3.565c-1.097-.549-2.469-.823-4.114.274-1.646.823-3.018 1.646-4.115 2.194-.274.549-.548 1.372-1.097 1.92-1.097 1.372-.274 3.292-2.743 5.212 0 0-2.194 2.194-1.645 6.034.822 2.468-.549 4.388-.549 4.388-1.097 1.92 1.646 6.035.274 7.955 0 0-1.371 1.92-1.097 10.971l-5.486 27.977-2.742-23.588-4.389-9.052c0-7.68-1.097-9.325-1.097-9.325-.823-1.372-1.372-6.858-2.194-8.778 0 0-1.098-1.92-1.372-6.034l-.274-2.468-9.326 5.211v9.6l-2.194-3.566v.549c.823 3.291-.549 5.76-.549 5.76 0 .274-.274.823-.274 1.097.274.274.274.549.274.823 0 0 2.743 5.486 6.857 21.12L34.56 86.4c2.743 6.857 5.486 10.971 5.486 10.971 2.743 4.389 1.371 9.875 4.114 15.36 2.743 5.486 1.371 4.115 2.743 9.6 1.371 5.76-1.372 7.132 4.114 16.732 5.76 9.874 1.372 8.228 7.132 16.731 0 0 5.485 8.229 8.228 16.457 3.84 5.486 5.486 11.246 5.486 11.246l1.92 5.486 7.954 18.103-.274 4.114c1.371 2.194 3.017 4.114 4.663 5.76v.274s-1.646 1.646-1.097 5.212c.548 2.194-.275 4.114-.275 4.114-.823 1.646.823 5.211 0 7.131 0 0-.823 1.646-.823 9.875L81.19 264.96l-.275 1.92v4.937l-6.034 2.469c-6.309 0-12.617-2.195-12.617-2.195-6.309-1.92 0 0-5.212-.822-5.211-1.098-4.114-1.098-7.405-1.098 0 0-3.017 0-5.212-2.194l-5.211 4.114-15.634-.274-.275.274-6.308-.274-6.309.274c0-5.211 1.097-8.228 1.097-8.228 1.097-3.292-1.097 1.097 0-8.503 0 0 1.097-9.326 0-14.537-3.017-8.229-1.92-12.617-1.92-12.617s.823-4.115 0-19.749l.549-15.086c.274-3.017.274-8.502-.274-9.874-.549-1.92-.549-8.777-1.098-11.52 0 0-.548-2.468-.548-7.406v-6.857l-.549-9.051-1.097-3.566-.823-7.131 1.92-4.937 8.777-5.212 7.406 1.646L27.703 144l-1.372 6.309c-.548 5.485-1.371 7.405-1.371 7.405-1.097 1.92-.549 4.389-2.194 6.857 0 0-1.92 2.469-1.646 7.406.274 3.292-.549 5.486-.549 5.486-1.097 2.468.549 7.68-.274 10.148 0 0-1.097 2.469-1.646 13.715l-1.645 11.794v.549s1.097 3.017 4.388 19.748c0 5.212 1.92 8.503 1.92 8.503 1.372 1.92 3.292 11.52 4.389 17.554l2.194 1.097H42.24c4.389 0 11.52 2.195 11.52 2.195 7.406 2.194 6.309 0 10.423 0 4.388 0 10.697 1.097 11.52-2.195.548-1.097 1.646-7.131 2.743-13.714l-2.469-7.406c-.274-7.131-.823-8.502-.823-8.502-.548-1.372-.823-6.309-1.371-7.955 0 0-.823-1.92-.823-5.485l-.274-1.372C67.749 205.166 61.714 192 60.89 188.983c-1.371-5.486-19.474-47.177-20.845-52.663-1.372-5.486-5.486-12.343-6.857-18.103-1.372-5.486-8.503-13.714-9.875-17.828-.548-1.646-1.645-4.663-3.291-7.68l-3.017 21.668-2.743-31.268-4.389-11.52c0-10.423-1.097-12.343-1.097-12.343-.823-1.92-1.371-9.052-2.194-11.795 0 0-1.097-2.468-1.372-7.68l-.548-7.131-1.372-9.051-1.645-4.115L0 12.343 2.469 7.13l9.6-4.388C12.89 1.37 13.714.549 14.81 1.37L25.51 2.743l.274.548S30.994 2.194 35.93 0c26.606 4.114 34.56 2.743 34.56 2.743 1.646-.274 3.292-.274 4.663.274l3.566-1.646z" />
  <path fill="currentColor"
    d="M212.751 17.28v3.84c-.548.823-1.371 1.92-1.371 1.92-.274.823-.549 1.371-.823 1.92-1.097 1.097-.548 2.743-1.92 4.389a10.4 10.4 0 0 0 0 4.114l1.372 5.76-2.743 9.874c-.549-.274-1.372-.548-1.372-.548-.274 0-.274.274-.274.274s-1.371 1.92-1.097 10.971l-5.486 28.252-2.743-23.863-4.388-9.052c0-7.954-1.097-9.325-1.097-9.325-.823-1.646-1.372-7.132-2.195-9.052 0 0-1.097-1.92-1.371-6.034l-.274-1.371s-6.035 2.742-10.423 2.742h-8.777l-3.292 4.938.549 3.565-1.646 15.635c-1.371 13.988-1.92 18.925-1.92 18.925-1.097 4.663-.274 10.972-2.743 17.28 0 0-2.468 6.309-1.646 18.652.549 7.954-.548 14.263-.548 14.263-1.372 6.308 1.646 18.651.274 24.96 0 0 .274 6.308-1.371 34.56l-5.212 89.417-2.743-75.155-4.388-28.251c-.274-25.234-1.097-29.897-1.097-29.897-1.097-4.663-1.92-21.943-2.195-28.252 0 0-1.371-6.308-1.645-18.925l-.549-17.006-1.371-22.217-1.646-9.326-1.097-13.166h-3.292c-4.662 0-10.697-2.742-10.697-2.742v1.371c-.548 4.114-1.645 6.034-1.645 6.034-.823 1.92-1.372 7.406-2.195 9.052 0 0-.823 1.371-1.097 9.325l-4.388 9.052-2.743 23.863-5.212-28.252c0-9.051-1.371-10.971-1.371-10.971v-.274l-1.646.548-2.743-9.874 1.372-5.76c.548-1.372.274-2.743 0-4.114-1.097-1.646-.823-3.292-1.92-4.389-.275-.549-.549-1.097-.823-1.92 0 0-.823-1.097-1.372-1.92v-3.84l-1.097-3.291 1.097-2.195v-1.92c.823-.823 2.195-1.92 2.195-1.92l3.017-5.485L109.62 1.37l4.663 1.646S124.98 3.291 145.551 0c3.566 1.646 7.68 2.743 7.68 2.743s4.389-1.097 7.68-2.743c20.846 3.291 31.269 3.017 31.269 3.017l4.663-1.646L207.54 2.47l3.291 5.485 1.92 1.92v1.92l1.098 2.195z" />
  <path fill="currentColor"
    d="m301.725 164.023 5.211 14.811-1.371 6.309c-.274 5.76-1.371 7.68-1.371 7.68-1.098 1.92-.275 4.388-2.469 7.131 0 0-1.92 2.469-1.371 7.68.548 3.017-.549 5.76-.549 5.76-.823 2.469 1.371 7.68.274 10.149-.548 1.646-.823 6.308-.823 9.874l3.566 26.332.823 5.76-6.857 2.742h-1.372l-.822 6.035-.275-6.035c-3.017-.274-12.617-2.468-12.617-2.468l-6.034-1.097c-6.309-1.097-5.212-1.097-8.777-1.097 0 0-3.566 0-6.309-2.469l-5.76 4.663-26.057-.274c.274-1.098.274-6.858 0-14.812l-.823 14.812-2.743-73.235-4.114-27.428c-.274-24.412-1.097-29.075-1.097-29.075-.823-3.565-1.097-14.537-1.646-22.217-.274-2.194-.548-3.84-.548-5.211 0 0-1.098-6.034-1.372-18.377l-.548-16.732-1.372-21.394-1.646-9.051-1.645-16.732 2.468-12.343L225.748 0l10.423 3.017.274 1.097s5.486-1.097 11.794-3.84c25.235 4.115 32.915 2.743 32.915 2.743.548-.274 1.097-.274 1.645-.274L288.559 0l10.423 1.371 6.034 14.538-1.371 6.582c-.549 5.76-1.92 7.68-1.92 7.68-1.097 1.92-.274 4.389-2.743 7.132 0 0-2.194 2.468-1.646 7.68.823 3.017-.548 5.76-.548 5.76-1.097 2.468 1.646 7.68.274 10.148 0 0-1.371 2.743-1.097 14.263l-5.211 36.48-2.743-30.72-4.389-11.52c0-10.423-1.097-12.343-1.097-12.343-.823-1.92-1.097-9.051-1.92-11.52 0 0-1.371-2.468-1.646-7.68l-.274-7.131-.823-3.84c-.823-.274-1.646-.274-3.017.549 0 0-6.857 4.114-12.069 4.114h-9.051l-11.246 6.308v.275l-1.645 15.36c-1.372 13.44-1.646 18.103-1.646 18.103-1.372 4.662-.549 10.697-2.743 16.731-1.371 3.84-1.646 9.6-1.92 13.714l2.194-2.743c5.212-2.468 5.76-3.565 5.76-3.565.823-.823 4.115-2.743 5.212-4.115 0 0 .823-1.097 3.291-2.742l3.566-1.92.274-.275 1.92-3.84 6.034-3.017.275-.274h.274l1.92-1.097 7.131 1.097 4.389 10.971-1.097 4.937c-.274 4.389-1.097 5.76-1.097 5.76-1.097 1.646-.275 3.566-1.92 5.486 0 0-1.646 1.92-1.372 5.76.549 2.469-.274 4.389-.274 4.389-.823 1.92 1.097 5.76 0 7.68 0 0-.823 1.92-.823 10.697l-3.566 27.703-1.92-23.315-3.017-8.777c0-7.68-.823-9.051-.823-9.051-.548-1.646-.822-6.857-1.371-8.777 0 0-.823-1.92-1.097-5.76l-.274-5.486v-.549c-.275 0-.549-.274-.823-.274 0 0-1.92-.823-4.389.823-1.371 1.097-3.017 1.097-3.017 1.097-1.646-.274-3.291 2.743-4.937 2.469 0 0-1.646 0-7.406 2.743l-2.743.822c.275 2.743.275 7.406-.548 11.52-1.372 6.309 1.371 18.378 0 24.412 0 0 .548 6.308-1.097 33.737l-3.018 51.017v2.194c-1.097 5.212 3.292 6.309 3.566 10.698 0 0 0 4.662 1.097 5.76l8.503 4.662h14.263c4.937 0 13.44 2.195 13.44 2.195 8.503 2.468 7.131 0 11.794 0 3.292 0 7.68.548 10.423-.275l-.823-11.245-3.565-11.52c-.275-10.423-1.098-12.343-1.098-12.343-.822-1.92-1.097-9.052-1.92-11.52 0 0-.822-2.469-1.097-7.68l-.274-7.132-1.371-8.777-1.372-3.84-1.371-7.131 2.194-5.212 10.423-5.76z" />
  <path fill="currentColor"
    d="m394.607 164.023 5.212 14.811-1.372 6.309c-.274 5.76-1.371 7.68-1.371 7.68-1.097 1.92-.275 4.388-2.469 7.131 0 0-1.92 2.469-1.371 7.68.548 3.017-.549 5.76-.549 5.76-.823 2.469 1.372 7.68.274 10.149-.548 1.646-.822 6.308-.822 9.874l3.565 26.332.823 5.76-6.857 2.742h-1.371l-.823 6.035-.275-6.035c-3.017-.274-7.68-.822-12.617-2.468-7.405-2.194 0 0-6.034-1.097-6.309-1.097-5.211-1.097-8.777-1.097 0 0-3.566 0-6.309-2.469l-5.76 4.663-26.057-.274c.274-1.098.274-6.858 0-14.812l-.823 14.812-2.743-73.235-4.114-27.428c-.274-24.412-1.097-29.075-1.097-29.075-.823-3.565-1.097-14.537-1.646-22.217-.274-2.194-.548-3.84-.548-5.211 0 0-1.097-6.034-1.372-18.377l-.548-16.732-1.372-21.394-1.645-9.051-1.646-16.732 2.468-12.343L318.63 0l10.423 3.017.274 1.097s5.486-1.097 11.794-3.84c25.235 4.115 32.915 2.743 32.915 2.743.548-.274 1.097-.274 1.645-.274L381.441 0l10.423 1.371 6.035 14.538-1.372 6.582c-.548 5.76-1.92 7.68-1.92 7.68-1.097 1.92-.274 4.389-2.743 7.132 0 0-2.194 2.468-1.645 7.68.822 3.017-.549 5.76-.549 5.76-1.097 2.468 1.646 7.68.274 10.148 0 0-1.371 2.743-1.097 14.263l-5.211 36.48-2.743-30.72-4.389-11.52c0-10.423-1.097-12.343-1.097-12.343-.823-1.92-1.097-9.051-1.92-11.52 0 0-1.371-2.468-1.646-7.68l-.274-7.131-.823-3.84c-.823-.274-1.645-.274-3.017.549 0 0-6.857 4.114-12.068 4.114h-9.052l-11.246 6.308v.275l-1.645 15.36c-1.372 13.44-1.646 18.103-1.646 18.103-1.371 4.662-.549 10.697-2.743 16.731-1.371 3.84-1.646 9.6-1.92 13.714l2.194-2.743c5.212-2.468 5.76-3.565 5.76-3.565.823-.823 4.115-2.743 5.212-4.115 0 0 .823-1.097 3.291-2.742l3.566-1.92.274-.275 1.92-3.84 6.035-3.017.274-.274h.274l1.92-1.097 7.132 1.097 4.388 10.971-1.097 4.937c-.274 4.389-1.097 5.76-1.097 5.76-1.097 1.646-.274 3.566-1.92 5.486 0 0-1.646 1.92-1.372 5.76.549 2.469-.274 4.389-.274 4.389-.823 1.92 1.097 5.76 0 7.68 0 0-.823 1.92-.823 10.697l-3.565 27.703-1.92-23.315-3.018-8.777c0-7.68-.822-9.051-.822-9.051-.549-1.646-.823-6.857-1.372-8.777 0 0-.823-1.92-1.097-5.76l-.274-5.486v-.549c-.275 0-.549-.274-.823-.274 0 0-1.92-.823-4.389.823-1.371 1.097-3.017 1.097-3.017 1.097-1.646-.274-3.291 2.743-4.937 2.469 0 0-1.646 0-7.406 2.743l-2.743.822c.275 2.743.275 7.406-.548 11.52-1.372 6.309 1.371 18.378 0 24.412 0 0 .548 6.308-1.097 33.737l-3.017 51.017v2.194c-1.098 5.212 3.291 6.309 3.565 10.698 0 0 0 4.662 1.097 5.76l8.503 4.662h14.263c4.937 0 13.44 2.195 13.44 2.195 8.503 2.468 7.132 0 11.794 0 3.292 0 7.68.548 10.423-.275l-.823-11.245-3.565-11.52c-.275-10.423-1.097-12.343-1.097-12.343-.823-1.92-1.098-9.052-1.92-11.52 0 0-.823-2.469-1.098-7.68l-.274-7.132-1.371-8.777-1.372-3.84-1.371-7.131 2.194-5.212 10.423-5.76z" />
  <path fill="currentColor"
    d="m489.958 7.131 2.468 5.212-1.371 7.131-1.92 4.115-1.371 9.051-.549 7.131c-.274 5.212-1.371 7.68-1.371 7.68-.823 2.743-1.372 9.875-2.195 11.795 0 0-.823 1.92-1.097 12.343l-4.388 11.52-2.743 31.268-3.017-21.668c-1.372 3.017-2.743 6.034-3.292 7.68-1.371 4.114-8.228 12.342-9.874 17.828-1.372 5.486-5.486 12.617-6.857 18.103.548-.274.823-.823 1.097-1.097 0 0 1.097-1.097 4.663-3.566l3.84-2.743 10.971-2.743 3.292 3.84-.549 7.132-2.743 2.743-4.937 1.92-3.017.823-6.034 2.468-4.663 2.469c-3.566 1.645-5.486 1.92-5.486 1.92-.274.274-.274.274-.549.274v.274s.549 1.92 5.486 8.503l13.166 22.492-13.714-17.006-6.583-5.212c-.823-1.371-1.92-2.468-1.92-2.468-5.486 13.44-12.343 29.348-13.166 32.64-.549 3.017-6.583 16.183-11.794 27.154v1.372c-.275 3.565-1.097 5.485-1.097 5.485-.549 1.646-.823 6.583-1.372 7.955 0 0-.548 1.371-.823 8.502l-2.468 7.406c1.097 6.583 2.194 12.617 2.743 13.714 1.097 3.292 7.405 2.195 11.52 2.195s3.017 2.194 10.422 0c0 0 7.406-2.195 11.52-2.195h12.343l2.195-1.097c1.097-6.034 3.017-15.634 4.388-17.554 0 0 2.194-3.291 2.194-8.503 3.018-16.731 4.115-19.748 4.115-19.748 1.097-3.018-2.195-18.926 1.92-20.846 2.743-1.372 2.743-24.686 2.468-39.497.275 3.017.549 6.308.823 7.954 1.097 5.211-1.097 10.697 0 14.811 0 0 .823 4.115 1.097 9.326l1.097 23.04c-1.097 15.634 0 19.749 0 19.749s.823 4.388-2.194 12.617c-1.097 5.211 0 14.537 0 14.537 1.097 9.6-1.097 5.211 0 8.503 0 0 1.097 3.017 1.097 8.228l-6.308-.274-6.309.274-.274-.274-15.634.274-5.212-4.114c-1.92 2.194-5.211 2.194-5.211 2.194-3.017 0-2.195 0-7.406 1.098-5.211.822 1.097-1.098-5.211.822 0 0-6.309 2.195-12.343 2.195l-6.035-2.469-.274-4.937v-1.92l-3.017-21.394c0-8.229-.823-9.875-.823-9.875-.823-1.92 1.097-5.485.274-7.131 0 0-.822-1.92-.548-4.114.548-3.566-1.097-5.212-1.097-5.212v-.274c1.92-1.646 3.291-3.566 4.663-5.76v-4.114l7.68-18.103 1.92-5.486s1.92-5.76 5.485-11.246c2.743-8.228 8.229-16.457 8.229-16.457s-.823.549-1.646.823l-8.503 2.469-20.571 9.874 22.491-15.36c7.406-3.84 8.777-5.486 8.777-5.486.275-.274 1.098-.548 1.646-1.097-.548-.274-.823-.823-1.097-1.097 0 0-1.646-1.097-3.84-3.84l-3.017-4.114-4.389-4.663-2.194-1.646-3.566-3.566-1.371-3.84 2.468-6.582 4.389-2.195 8.777 6.583 1.92 4.114c2.194 3.566 2.743 4.938 2.743 4.938.274 1.371 1.646 2.742 1.92 4.937 0 1.371 1.097 2.743 1.646 3.84.274-.275.274-.549.548-.823 5.486-9.6 2.743-10.972 4.115-16.732 1.371-5.485 0-4.114 2.742-9.6s1.372-10.971 4.115-15.36c0 0 2.743-4.114 5.485-10.971l4.389-10.697c4.114-15.634 6.857-21.12 6.857-21.12 0-.274.274-.549.274-.823s0-.823-.274-1.097c0 0-1.371-2.469-.548-5.76v-.549l-2.195 3.566v-9.6l-15.36-8.503h-9.6c-5.485 0-12.617-4.114-12.617-4.114-1.92-1.097-3.291-.823-4.114-.274l-.823 3.565-.274 6.857c0 .823-.275 1.92-.275 1.92v.549c.275.549 0 1.371-.548 1.92-.274 1.097-.549 2.194-.823 3.017-.823 2.469-1.097 9.326-2.194 11.246 0 0-.823 1.92-1.097 11.794l-4.389 11.246-2.469 29.623-5.485-35.383c.274-10.972-1.097-13.44-1.097-13.44-1.372-2.469 1.371-7.68 0-10.149 0 0-1.098-2.468-.275-5.485.549-4.938-1.92-7.406-1.92-7.406-2.194-2.469-1.371-4.937-2.743-6.857 0 0-1.097-1.92-1.645-7.406l-1.646-6.309 6.309-13.988 10.422-1.372 3.566 1.646c1.372-.548 3.017-.548 4.663-.274 0 0 8.229 1.371 34.56-2.743 5.211 2.194 10.149 3.291 10.149 3.291l.274-.548 10.697-1.372c1.097-.822 1.92 0 2.743 1.372zm-10.149 146.195s-.274-6.309-.274-12.892c.274 5.486.274 12.892.274 12.892" />
</svg>